REM DIRINDEX 1\2,1\3,1\4,1\5
REM DIRNAME "folder01","folder02","folder03","folder04","folder05"
TITLE ""
FILE "1Q_t_0810-0819.mp3" MP3
  TRACK 01 AUDIO
    TITLE "0:"
    INDEX 01 00:00:00
  TRACK 02 AUDIO
    TITLE "3:cjc172_3379"
    INDEX 01 00:00:08
  TRACK 03 AUDIO
    TITLE "0:"
    INDEX 01 00:01:06
  TRACK 04 AUDIO
    TITLE "4:cjc172_3380"
    INDEX 01 00:01:14
  TRACK 05 AUDIO
    TITLE "0:"
    INDEX 01 00:03:30
  TRACK 06 AUDIO
    TITLE "5:cjc172_3381"
    INDEX 01 00:03:38
  TRACK 07 AUDIO
    TITLE "0:"
    INDEX 01 00:10:36
  TRACK 08 AUDIO
    TITLE "3:cjc172_3382"
    INDEX 01 00:11:08
  TRACK 09 AUDIO
    TITLE "0:"
    INDEX 01 00:12:19
  TRACK 10 AUDIO
    TITLE "4:cjc172_3383"
    INDEX 01 00:12:27
  TRACK 11 AUDIO
    TITLE "0:"
    INDEX 01 00:14:12
  TRACK 12 AUDIO
    TITLE "5:cjc172_3384"
    INDEX 01 00:14:18
  TRACK 13 AUDIO
    TITLE "0:"
    INDEX 01 00:19:45
  TRACK 14 AUDIO
    TITLE "3:cjc172_3385"
    INDEX 01 00:20:15
  TRACK 15 AUDIO
    TITLE "0:"
    INDEX 01 00:21:26
  TRACK 16 AUDIO
    TITLE "4:cjc172_3386"
    INDEX 01 00:21:36
  TRACK 17 AUDIO
    TITLE "0:"
    INDEX 01 00:24:13
  TRACK 18 AUDIO
    TITLE "5:cjc172_3387"
    INDEX 01 00:24:21
  TRACK 19 AUDIO
    TITLE "0:"
    INDEX 01 00:29:34
  TRACK 20 AUDIO
    TITLE "3:cjc172_3388"
    INDEX 01 00:30:04
  TRACK 21 AUDIO
    TITLE "0:"
    INDEX 01 00:31:09
  TRACK 22 AUDIO
    TITLE "4:cjc172_3389"
    INDEX 01 00:31:17
  TRACK 23 AUDIO
    TITLE "0:"
    INDEX 01 00:39:59
  TRACK 24 AUDIO
    TITLE "5:cjc172_3390"
    INDEX 01 00:39:67
  TRACK 25 AUDIO
    TITLE "0:"
    INDEX 01 00:45:60
  TRACK 26 AUDIO
    TITLE "3:cjc172_3391"
    INDEX 01 00:46:38
  TRACK 27 AUDIO
    TITLE "0:"
    INDEX 01 00:48:07
  TRACK 28 AUDIO
    TITLE "4:cjc172_3392"
    INDEX 01 00:48:17
  TRACK 29 AUDIO
    TITLE "0:"
    INDEX 01 00:49:60
  TRACK 30 AUDIO
    TITLE "5:cjc172_3393"
    INDEX 01 00:49:66
  TRACK 31 AUDIO
    TITLE "0:"
    INDEX 01 00:56:40
  TRACK 32 AUDIO
    TITLE "3:cjc172_3394"
    INDEX 01 00:57:12
  TRACK 33 AUDIO
    TITLE "0:"
    INDEX 01 00:58:33
  TRACK 34 AUDIO
    TITLE "4:cjc172_3395"
    INDEX 01 00:58:43
  TRACK 35 AUDIO
    TITLE "0:"
    INDEX 01 01:01:73
  TRACK 36 AUDIO
    TITLE "5:cjc172_3396"
    INDEX 01 01:02:06
  TRACK 37 AUDIO
    TITLE "0:"
    INDEX 01 01:07:32
  TRACK 38 AUDIO
    TITLE "3:cjc172_3397"
    INDEX 01 01:08:02
  TRACK 39 AUDIO
    TITLE "0:"
    INDEX 01 01:09:10
  TRACK 40 AUDIO
    TITLE "4:cjc172_3398"
    INDEX 01 01:09:21
  TRACK 41 AUDIO
    TITLE "0:"
    INDEX 01 01:11:53
  TRACK 42 AUDIO
    TITLE "5:cjc172_3399"
    INDEX 01 01:11:61
  TRACK 43 AUDIO
    TITLE "0:"
    INDEX 01 01:17:66
  TRACK 44 AUDIO
    TITLE "3:cjc172_3400"
    INDEX 01 01:18:40
  TRACK 45 AUDIO
    TITLE "0:"
    INDEX 01 01:19:67
  TRACK 46 AUDIO
    TITLE "4:cjc172_3401"
    INDEX 01 01:19:75
  TRACK 47 AUDIO
    TITLE "0:"
    INDEX 01 01:23:08
  TRACK 48 AUDIO
    TITLE "5:cjc172_3402"
    INDEX 01 01:23:16
  TRACK 49 AUDIO
    TITLE "0:"
    INDEX 01 01:27:39
  TRACK 50 AUDIO
    TITLE "3:cjc172_3403"
    INDEX 01 01:28:11
  TRACK 51 AUDIO
    TITLE "0:"
    INDEX 01 01:29:34
  TRACK 52 AUDIO
    TITLE "4:cjc172_3404"
    INDEX 01 01:29:45
  TRACK 53 AUDIO
    TITLE "0:"
    INDEX 01 01:36:06
  TRACK 54 AUDIO
    TITLE "5:cjc172_3405"
    INDEX 01 01:36:14
  TRACK 55 AUDIO
    TITLE "0:"
    INDEX 01 01:42:23
  TRACK 56 AUDIO
    TITLE "3:cjc172_3406"
    INDEX 01 01:42:68
  TRACK 57 AUDIO
    TITLE "0:"
    INDEX 01 01:43:69
  TRACK 58 AUDIO
    TITLE "4:cjc172_3407"
    INDEX 01 01:44:02
  TRACK 59 AUDIO
    TITLE "0:"
    INDEX 01 01:46:46
  TRACK 60 AUDIO
    TITLE "5:cjc172_3408"
    INDEX 01 01:46:52
  TRACK 61 AUDIO
    TITLE "0:"
    INDEX 01 01:53:34
